# xmcd CD database file
#
# Track frame offsets:
#	187
#	19350
#	38840
#	57965
#
# Disc length: 1032 seconds
#
# Revision: 0
# Processed by: cddbd v1.5PL3 Copyright (c) Steve Scherf et al.
# Submitted via: CDex 1.51
#
DISCID=2e040604
DTITLE=Smap - 心の鏡
DYEAR=1992
DGENRE=JPop
TTITLE0=心の鏡
TTITLE1=ZIGZAGバック･ストリート
TTITLE2=心の鏡(Karaoke)
TTITLE3=ZIGZAGバック・ストリート(Karaoke)
EXTD=YEAR: 1992
EXTT0=
EXTT1=
EXTT2=
EXTT3=
PLAYORDER=
